<?xml version="1.0" encoding="UTF-8"?>
<svg width="32" height="32" viewBox="0 0 32 32" xmlns="http://www.w3.org/2000/svg">
  <!-- Background circle -->
  <circle cx="16" cy="16" r="15" fill="#f67280" stroke="#c06c84" stroke-width="2"/>
  
  <!-- Chart grid lines -->
  <line x1="6" y1="25" x2="26" y2="25" stroke="white" stroke-width="0.5" opacity="0.7"/>
  <line x1="6" y1="20" x2="26" y2="20" stroke="white" stroke-width="0.5" opacity="0.5"/>
  <line x1="6" y1="15" x2="26" y2="15" stroke="white" stroke-width="0.5" opacity="0.3"/>
  <line x1="6" y1="10" x2="26" y2="10" stroke="white" stroke-width="0.5" opacity="0.3"/>
  
  <!-- Trend line (historical) -->
  <polyline points="6,22 10,20 14,18 18,16 22,14" 
            fill="none" 
            stroke="white" 
            stroke-width="2.5" 
            stroke-linecap="round"/>
  
  <!-- Prediction line (dashed) -->
  <polyline points="22,14 26,12" 
            fill="none" 
            stroke="white" 
            stroke-width="2" 
            stroke-dasharray="2,1" 
            stroke-linecap="round"
            opacity="0.9"/>
  
  <!-- Data points -->
  <circle cx="6" cy="22" r="1.5" fill="white"/>
  <circle cx="10" cy="20" r="1.5" fill="white"/>
  <circle cx="14" cy="18" r="1.5" fill="white"/>
  <circle cx="18" cy="16" r="1.5" fill="white"/>
  <circle cx="22" cy="14" r="1.5" fill="white"/>
  
  <!-- Prediction point -->
  <circle cx="26" cy="12" r="1.5" fill="white" opacity="0.8" stroke="#c06c84" stroke-width="0.5"/>
  
  <!-- Small trend arrow -->
  <path d="M 24 10 L 26 8 L 28 10 M 26 8 L 26 12" 
        stroke="white" 
        stroke-width="1.5" 
        fill="none" 
        stroke-linecap="round" 
        opacity="0.9"/>
</svg>
